<?xml version="1.0" encoding="UTF-8" standalone="no"?>
<svg
   xmlns:dc="http://purl.org/dc/elements/1.1/"
   xmlns:cc="http://creativecommons.org/ns#"
   xmlns:rdf="http://www.w3.org/1999/02/22-rdf-syntax-ns#"
   xmlns:svg="http://www.w3.org/2000/svg"
   xmlns="http://www.w3.org/2000/svg"
   xmlns:sodipodi="http://sodipodi.sourceforge.net/DTD/sodipodi-0.dtd"
   xmlns:inkscape="http://www.inkscape.org/namespaces/inkscape"
   id="Layer_2"
   version="1.1"
   viewBox="0 0 628.34149 888.45011"
   xml:space="preserve"
   sodipodi:docname="card.svg"
   width="628.34149"
   height="888.45001"
   inkscape:version="1.0.1 (0767f8302a, 2020-10-17)"><metadata
     id="metadata13"><rdf:RDF><cc:Work
         rdf:about=""><dc:format>image/svg+xml</dc:format><dc:type
           rdf:resource="http://purl.org/dc/dcmitype/StillImage" /><dc:title /></cc:Work></rdf:RDF></metadata><defs
     id="defs11"><style
       type="text/css"
       id="style1198">
    .fil9 {fill:black}
    .fil3 {fill:#1A1A1A}
    .fil14 {fill:#4A4949}
    .fil1 {fill:#4D4D4D}
    .fil6 {fill:#914313}
    .fil13 {fill:#A4ABAD}
    .fil8 {fill:#ACADB5}
    .fil4 {fill:#BFC0C8}
    .fil11 {fill:#CED3D5}
    .fil12 {fill:#E3E7E8}
    .fil10 {fill:#E6E6E6}
    .fil7 {fill:#EBBC96}
    .fil5 {fill:#FACAA3}
    .fil2 {fill:white}
    .fil0 {fill:url(#a)}
  </style></defs><sodipodi:namedview
     pagecolor="#ffffff"
     bordercolor="#666666"
     borderopacity="1"
     objecttolerance="10"
     gridtolerance="10"
     guidetolerance="10"
     inkscape:pageopacity="0"
     inkscape:pageshadow="2"
     inkscape:window-width="1366"
     inkscape:window-height="704"
     id="namedview9"
     showgrid="false"
     inkscape:zoom="0.36534296"
     inkscape:cx="136.03587"
     inkscape:cy="432.74668"
     inkscape:window-x="0"
     inkscape:window-y="27"
     inkscape:window-maximized="1"
     inkscape:current-layer="Layer_2"
     inkscape:document-rotation="0" /><g
     id="g847"><path
       id="path1796-6-0-6"
       style="color:#000000;overflow:visible;fill:#231f20;fill-opacity:1;stroke:none;stroke-width:56.7676;stroke-miterlimit:4;stroke-dasharray:none;stroke-opacity:0.992157;stop-color:#000000"
       d="m 151.03178,206.65909 c -12.65808,0.002 -25.31827,3.28557 -36.64461,9.85622 -22.34803,12.96418 -36.23871,36.8483 -36.61958,62.72125 -0.0241,0.36143 -0.048,0.72323 -0.048,1.08539 0,10.50845 8.47733,19.02787 18.93598,19.02782 10.45841,5e-5 18.93806,-8.51937 18.93806,-19.02782 0,-12.75433 6.70146,-24.46505 17.69405,-30.84193 10.99187,-6.37633 24.44839,-6.37633 35.44025,0 10.99258,6.37689 17.73416,18.08813 17.73368,30.84193 l -0.0107,144.89403 h -12.63233 a 18.936814,19.027097 0 0 0 -0.91842,-0.0125 18.936814,19.027097 0 0 0 -0.21707,0 h -0.009 a 18.936814,19.027097 0 0 0 -18.71263,19.02571 18.936814,19.027097 0 0 0 18.93597,19.02783 18.936814,19.027097 0 0 0 0.0125,0 v 0.0125 h 13.53823 l -0.0125,199.46855 c 0,10.52082 8.49196,19.05287 18.96311,19.05287 10.4709,0 18.96103,-8.53205 18.96103,-19.05287 l 0.009,-199.46855 h 13.58623 v -0.0125 a 18.936814,19.027097 0 0 1 0.0125,0 18.936814,19.027097 0 0 0 18.93598,-19.02783 18.936814,19.027097 0 0 0 -18.93598,-19.02571 18.936814,19.027097 0 0 0 -0.68255,0.0125 h -12.91412 l 0.002,-35.61975 c 0,-12.7543 6.7033,-24.46718 17.69612,-30.84402 10.99163,-6.37638 24.44629,-6.37638 35.43816,0 10.99282,6.37684 17.73442,18.09022 17.73369,30.84402 l -0.025,273.14186 c 0,10.52081 8.49221,19.05287 18.96311,19.05287 10.4709,0 18.96101,-8.53206 18.96101,-19.05287 l -0.0125,-164.1452 c 0.0961,-12.6516 6.76485,-24.24807 17.68151,-30.58102 10.99187,-6.37628 24.43585,-6.37628 35.42772,0 10.99282,6.37704 17.74695,18.09022 17.74622,30.84402 l 0.0125,109.25967 c 0.0127,26.29009 14.0083,50.66067 36.66967,63.80664 22.66066,13.14554 50.63903,13.14554 73.29968,0 22.66161,-13.14597 36.65715,-37.51577 36.65715,-63.80664 V 507.16544 c 0,-10.50851 -8.47733,-19.02794 -18.93598,-19.02782 -10.45817,7e-5 -18.93807,8.51938 -18.93807,19.02782 -4.8e-4,0.0748 -4.8e-4,0.14848 0,0.22333 v 100.7268 c 0,12.75438 -6.70145,24.46497 -17.69403,30.84193 -10.99187,6.37619 -24.44838,6.37619 -35.44024,0 -10.9926,-6.37696 -17.73209,-18.08825 -17.73161,-30.84193 l -0.0125,-109.25967 c -0.0127,-26.29011 -14.0083,-50.66067 -36.66967,-63.80664 -11.33044,-6.57278 -23.99497,-9.85832 -36.65715,-9.85832 -12.21015,0 -24.40002,3.0849 -35.4152,9.19664 v -44.79343 c -0.002,-26.29005 -13.99553,-50.66063 -36.65716,-63.80665 -11.33019,-6.57277 -23.99472,-9.85623 -36.65714,-9.85623 -12.22457,0 -24.43906,3.09552 -35.46529,9.22169 v -44.83101 c -0.002,-26.29012 -13.99552,-50.66052 -36.65714,-63.80664 -11.3266,-6.57065 -23.9847,-9.85404 -36.64254,-9.85622 z" /><path
       style="color:#000000;font-style:normal;font-variant:normal;font-weight:normal;font-stretch:normal;font-size:medium;line-height:normal;font-family:sans-serif;font-variant-ligatures:normal;font-variant-position:normal;font-variant-caps:normal;font-variant-numeric:normal;font-variant-alternates:normal;font-variant-east-asian:normal;font-feature-settings:normal;font-variation-settings:normal;text-indent:0;text-align:start;text-decoration:none;text-decoration-line:none;text-decoration-style:solid;text-decoration-color:#000000;letter-spacing:normal;word-spacing:normal;text-transform:none;writing-mode:lr-tb;direction:ltr;text-orientation:mixed;dominant-baseline:auto;baseline-shift:baseline;text-anchor:start;white-space:normal;shape-padding:0;shape-margin:0;inline-size:0;clip-rule:nonzero;display:inline;overflow:visible;visibility:visible;isolation:auto;mix-blend-mode:normal;color-interpolation:sRGB;color-interpolation-filters:linearRGB;solid-color:#000000;solid-opacity:1;vector-effect:none;fill:#231f20;fill-opacity:1;fill-rule:nonzero;stroke:none;stroke-width:50.8077;stroke-linecap:butt;stroke-linejoin:miter;stroke-miterlimit:4;stroke-dasharray:none;stroke-dashoffset:0;stroke-opacity:1;paint-order:stroke markers fill;color-rendering:auto;image-rendering:auto;shape-rendering:auto;text-rendering:auto;enable-background:accumulate;stop-color:#000000;stop-opacity:1;opacity:1"
       d="M 137.03125 0 C 61.55525 0 3.7895613e-14 61.555267 0 137.03125 L 0 751.41797 C 5.7813101e-15 826.89403 61.555258 888.44922 137.03125 888.44922 L 491.31055 888.44922 C 566.78655 888.44922 628.3418 826.89403 628.3418 751.41797 L 628.3418 137.03125 C 628.3418 61.555265 566.78656 0 491.31055 0 L 137.03125 0 z M 137.03125 50.808594 L 491.31055 50.808594 C 539.51791 50.808594 577.5332 88.823897 577.5332 137.03125 L 577.5332 751.41797 C 577.5332 799.62544 539.51792 837.64258 491.31055 837.64258 L 137.03125 837.64258 C 88.823902 837.64258 50.808594 799.62545 50.808594 751.41797 L 50.808594 137.03125 C 50.808594 88.823895 88.82391 50.808594 137.03125 50.808594 z "
       id="path843" /></g></svg>
