<?xml version="1.0" encoding="UTF-8" standalone="no"?>
<svg
   xmlns:dc="http://purl.org/dc/elements/1.1/"
   xmlns:cc="http://creativecommons.org/ns#"
   xmlns:rdf="http://www.w3.org/1999/02/22-rdf-syntax-ns#"
   xmlns:svg="http://www.w3.org/2000/svg"
   xmlns="http://www.w3.org/2000/svg"
   xmlns:sodipodi="http://sodipodi.sourceforge.net/DTD/sodipodi-0.dtd"
   xmlns:inkscape="http://www.inkscape.org/namespaces/inkscape"
   id="Layer_2"
   version="1.1"
   viewBox="0 0 900.00006 1000.1032"
   xml:space="preserve"
   sodipodi:docname="deck.svg"
   width="900.00006"
   height="1000.1031"
   inkscape:version="1.0.1 (0767f8302a, 2020-10-17)"><metadata
     id="metadata13"><rdf:RDF><cc:Work
         rdf:about=""><dc:format>image/svg+xml</dc:format><dc:type
           rdf:resource="http://purl.org/dc/dcmitype/StillImage" /></cc:Work></rdf:RDF></metadata><defs
     id="defs11"><style
       type="text/css"
       id="style1198">
    .fil9 {fill:black}
    .fil3 {fill:#1A1A1A}
    .fil14 {fill:#4A4949}
    .fil1 {fill:#4D4D4D}
    .fil6 {fill:#914313}
    .fil13 {fill:#A4ABAD}
    .fil8 {fill:#ACADB5}
    .fil4 {fill:#BFC0C8}
    .fil11 {fill:#CED3D5}
    .fil12 {fill:#E3E7E8}
    .fil10 {fill:#E6E6E6}
    .fil7 {fill:#EBBC96}
    .fil5 {fill:#FACAA3}
    .fil2 {fill:white}
    .fil0 {fill:url(#a)}
  </style></defs><sodipodi:namedview
     pagecolor="#ffffff"
     bordercolor="#666666"
     borderopacity="1"
     objecttolerance="10"
     gridtolerance="10"
     guidetolerance="10"
     inkscape:pageopacity="0"
     inkscape:pageshadow="2"
     inkscape:window-width="1366"
     inkscape:window-height="704"
     id="namedview9"
     showgrid="false"
     inkscape:zoom="0.2703488"
     inkscape:cx="543.3047"
     inkscape:cy="232.81876"
     inkscape:window-x="0"
     inkscape:window-y="27"
     inkscape:window-maximized="1"
     inkscape:current-layer="Layer_2" /><g
     id="g1392"
     transform="matrix(1.0686971,0,0,1.0686971,-32.976254,-8.2902549)"><path
       id="path1325"
       style="color:#000000;font-style:normal;font-variant:normal;font-weight:normal;font-stretch:normal;font-size:medium;line-height:normal;font-family:sans-serif;font-variant-ligatures:normal;font-variant-position:normal;font-variant-caps:normal;font-variant-numeric:normal;font-variant-alternates:normal;font-variant-east-asian:normal;font-feature-settings:normal;font-variation-settings:normal;text-indent:0;text-align:start;text-decoration:none;text-decoration-line:none;text-decoration-style:solid;text-decoration-color:#000000;letter-spacing:normal;word-spacing:normal;text-transform:none;writing-mode:lr-tb;direction:ltr;text-orientation:mixed;dominant-baseline:auto;baseline-shift:baseline;text-anchor:start;white-space:normal;shape-padding:0;shape-margin:0;inline-size:0;clip-rule:nonzero;display:inline;overflow:visible;visibility:visible;opacity:1;isolation:auto;mix-blend-mode:normal;color-interpolation:sRGB;color-interpolation-filters:linearRGB;solid-color:#000000;solid-opacity:1;vector-effect:none;fill:#231f20;fill-opacity:1;fill-rule:nonzero;stroke:none;stroke-width:47.5438;stroke-linecap:butt;stroke-linejoin:miter;stroke-miterlimit:4;stroke-dasharray:none;stroke-dashoffset:0;stroke-opacity:1;paint-order:stroke markers fill;color-rendering:auto;image-rendering:auto;shape-rendering:auto;text-rendering:auto;enable-background:accumulate;stop-color:#000000;stop-opacity:1"
       d="m 596.45967,7.7573476 c -11.3926,0.031295 -23.83079,1.8123775 -33.67998,4.4106954 l -72.46724,19.41683 c -15.76636,-5.815139 -32.60877,-8.589901 -49.60534,-7.920855 -19.98972,0.78684 -40.18013,6.345345 -58.68696,17.030358 l -64.3514,37.152918 -75.11377,20.122569 C 203.8527,108.34013 174.01945,135.54489 158.76823,169.59214 L 94.918278,206.45719 C 33.752411,241.77132 12.663184,320.45966 47.977967,381.62666 L 335.44198,879.51878 c 35.31359,61.16492 113.9961,82.24426 175.16016,46.931 l 80.03526,-46.20671 h 154.13692 c 70.62756,0 128.22916,-57.60159 128.22916,-128.22917 V 177.09528 c 0,-70.62757 -57.6016,-128.229159 -128.22916,-128.229159 H 689.94096 C 666.09224,23.114401 632.34236,7.8341316 596.45967,7.7573476 Z M 428.96041,96.409999 h 315.81391 c 45.11062,0 80.68529,35.574651 80.68529,80.685281 v 574.91877 c 0,45.11058 -35.57467,80.68528 -80.68529,80.68528 H 672.98492 529.02539 413.25794 c -47.69967,-0.7285 -80.68587,-37.86345 -80.68587,-83.91673 V 177.09535 c 2.13449,-58.77568 43.64448,-80.685351 96.38834,-80.685351 z M 292.5875,133.79507 c -1.60527,4.45116 -2.94834,9.02607 -4.05792,13.68746 -0.32805,1.24508 -0.65093,2.49744 -0.91004,3.77009 -1.27593,6.26719 -2.09368,12.69768 -2.42364,19.24966 -1.4e-4,0.003 1.9e-4,0.005 0,0.009 -0.10984,2.18094 -0.16735,4.37841 -0.16735,6.58369 V 568.19959 L 197.81549,242.70955 c -12.14886,-43.03346 17.29417,-87.44419 57.04333,-98.8114 z m -144.73953,97.00064 c 0.56258,8.04937 1.87579,16.15242 4.03937,24.22699 L 257.62607,649.65542 89.151726,357.85487 C 66.59753,318.78992 79.623836,270.18605 118.69022,247.63109 Z"
       sodipodi:nodetypes="cccscccccccccssssccccsssccccccccsscscccccccccc" /><path
       id="path1796-6-0-6"
       style="color:#000000;overflow:visible;fill:#231f20;fill-opacity:1;stroke:none;stroke-width:53.1185;stroke-miterlimit:4;stroke-dasharray:none;stroke-opacity:0.992157;stop-color:#000000"
       d="m 426.36328,242.25977 c -11.8444,0.002 -23.69078,3.07437 -34.28906,9.22265 -20.91147,12.13084 -33.90924,34.47965 -34.26563,58.68946 -0.0225,0.33819 -0.0449,0.67674 -0.0449,1.01562 0,9.83295 7.93239,17.80473 17.71875,17.80469 9.78613,4e-5 17.7207,-7.97174 17.7207,-17.80469 0,-11.93447 6.27068,-22.89241 16.55665,-28.85938 10.2853,-5.96645 22.87682,-5.96645 33.16211,0 10.28597,5.96698 16.59419,16.92541 16.59374,28.85938 l -0.01,135.58008 h -11.82031 a 17.719533,17.804013 0 0 0 -0.85938,-0.0117 17.719533,17.804013 0 0 0 -0.20312,0 h -0.008 a 17.719533,17.804013 0 0 0 -17.50976,17.80273 17.719533,17.804013 0 0 0 17.71875,17.80469 17.719533,17.804013 0 0 0 0.0117,0 v 0.0117 h 12.66797 l -0.0117,186.64648 c 0,9.84453 7.94609,17.82813 17.74414,17.82813 9.79782,0 17.74219,-7.9836 17.74219,-17.82813 l 0.008,-186.64648 h 12.71289 v -0.0117 a 17.719533,17.804013 0 0 1 0.0117,0 17.719533,17.804013 0 0 0 17.71875,-17.80469 17.719533,17.804013 0 0 0 -17.71875,-17.80273 17.719533,17.804013 0 0 0 -0.63867,0.0117 h -12.08399 l 0.002,-33.33008 c 0,-11.93444 6.27241,-22.8944 16.5586,-28.86133 10.28507,-5.9665 22.87485,-5.9665 33.16015,0 10.28619,5.96693 16.59443,16.92736 16.59375,28.86133 l -0.0234,255.58398 c 0,9.84453 7.94632,17.82813 17.74414,17.82813 9.79782,0 17.74218,-7.9836 17.74218,-17.82813 l -0.0117,-153.59375 c 0.0899,-11.83834 6.33,-22.68937 16.54492,-28.61523 10.2853,-5.96641 22.86509,-5.96641 33.15039,0 10.28619,5.96711 16.60615,16.92736 16.60547,28.86133 l 0.0117,102.23633 c 0.0119,24.60013 13.10783,47.40414 34.3125,59.70507 21.204,12.30053 47.38389,12.30053 68.58789,0 21.20489,-12.30093 34.30078,-35.10421 34.30078,-59.70507 v -94.46094 c 0,-9.83301 -7.93239,-17.8048 -17.71875,-17.80469 -9.78591,7e-5 -17.72071,7.97175 -17.72071,17.80469 -4.5e-4,0.07 -4.5e-4,0.13894 0,0.20898 v 94.25196 c 0,11.93451 -6.27067,22.89233 -16.55664,28.85937 -10.2853,5.96632 -22.87681,5.96632 -33.1621,0 -10.28598,-5.96704 -16.59225,-16.92551 -16.5918,-28.85937 l -0.0117,-102.23633 c -0.0119,-24.60015 -13.10783,-47.40414 -34.3125,-59.70508 -10.60211,-6.15027 -22.45255,-9.22461 -34.30078,-9.22461 -11.42528,0 -22.83156,2.8866 -33.13867,8.60547 v -41.91406 c -0.002,-24.60009 -13.09588,-47.4041 -34.30079,-59.70508 -10.60188,-6.15027 -22.45232,-9.22266 -34.30078,-9.22266 -11.43877,0 -22.86809,2.89653 -33.18554,8.62891 V 311.1875 c -0.002,-24.60016 -13.09588,-47.40401 -34.30078,-59.70508 -10.59851,-6.14828 -22.44293,-9.22061 -34.28711,-9.22265 z" /></g></svg>
