<?xml version="1.0" encoding="UTF-8" standalone="no"?>
<svg
   xmlns:dc="http://purl.org/dc/elements/1.1/"
   xmlns:cc="http://creativecommons.org/ns#"
   xmlns:rdf="http://www.w3.org/1999/02/22-rdf-syntax-ns#"
   xmlns:svg="http://www.w3.org/2000/svg"
   xmlns="http://www.w3.org/2000/svg"
   xmlns:sodipodi="http://sodipodi.sourceforge.net/DTD/sodipodi-0.dtd"
   xmlns:inkscape="http://www.inkscape.org/namespaces/inkscape"
   id="Layer_2"
   version="1.1"
   viewBox="0 0 900.00018 904.24326"
   xml:space="preserve"
   sodipodi:docname="logo.svg"
   width="900.00018"
   height="904.24316"
   inkscape:version="1.0.1 (0767f8302a, 2020-10-17)"><metadata
     id="metadata13"><rdf:RDF><cc:Work
         rdf:about=""><dc:format>image/svg+xml</dc:format><dc:type
           rdf:resource="http://purl.org/dc/dcmitype/StillImage" /><dc:title></dc:title></cc:Work></rdf:RDF></metadata><defs
     id="defs11"><style
       type="text/css"
       id="style1198">
    .fil9 {fill:black}
    .fil3 {fill:#1A1A1A}
    .fil14 {fill:#4A4949}
    .fil1 {fill:#4D4D4D}
    .fil6 {fill:#914313}
    .fil13 {fill:#A4ABAD}
    .fil8 {fill:#ACADB5}
    .fil4 {fill:#BFC0C8}
    .fil11 {fill:#CED3D5}
    .fil12 {fill:#E3E7E8}
    .fil10 {fill:#E6E6E6}
    .fil7 {fill:#EBBC96}
    .fil5 {fill:#FACAA3}
    .fil2 {fill:white}
    .fil0 {fill:url(#a)}
  </style></defs><sodipodi:namedview
     pagecolor="#ffffff"
     bordercolor="#666666"
     borderopacity="1"
     objecttolerance="10"
     gridtolerance="10"
     guidetolerance="10"
     inkscape:pageopacity="0"
     inkscape:pageshadow="2"
     inkscape:window-width="1366"
     inkscape:window-height="704"
     id="namedview9"
     showgrid="false"
     inkscape:zoom="0.2703488"
     inkscape:cx="523.5785"
     inkscape:cy="166.7239"
     inkscape:window-x="0"
     inkscape:window-y="27"
     inkscape:window-maximized="1"
     inkscape:current-layer="Layer_2"
     inkscape:document-rotation="0" /><path
     id="path1796-6-0-6"
     style="color:#000000;overflow:visible;fill:#231f20;fill-opacity:1;stroke:none;stroke-width:108.037;stroke-miterlimit:4;stroke-dasharray:none;stroke-opacity:0.992157;stop-color:#000000"
     d="M 139.52344,0 C 115.43332,0.004 91.339194,6.2529 69.78354,18.75778 27.25208,43.430467 0.81615,88.885307 0.0913,138.12519 0.0454,138.81305 0,139.5016 0,140.19084 c 0,19.99907 16.13356,36.21273 36.03785,36.21264 19.90383,9e-5 36.04181,-16.21357 36.04181,-36.21264 0,-24.27329 12.753824,-46.560453 33.67428,-58.696553 20.91908,-12.13506 46.52874,-12.13506 67.44781,0 20.92043,12.13612 33.75061,34.424273 33.7497,58.696553 l -0.0204,275.75386 h -24.04111 a 36.039436,36.211257 0 0 0 -1.74788,-0.0238 36.039436,36.211257 0 0 0 -0.41311,0 h -0.0171 a 36.039436,36.211257 0 0 0 -35.61279,36.20864 36.039436,36.211257 0 0 0 36.03785,36.21263 36.039436,36.211257 0 0 0 0.0238,0 v 0.0238 h 25.76515 l -0.0238,379.61687 c 0,20.0226 16.1614,36.2603 36.08948,36.2603 19.92761,0 36.08553,-16.2377 36.08553,-36.2603 l 0.0171,-379.61687 h 25.85652 v -0.0238 a 36.039436,36.211257 0 0 1 0.0238,0 36.039436,36.211257 0 0 0 36.03785,-36.21263 36.039436,36.211257 0 0 0 -36.03785,-36.20864 36.039436,36.211257 0 0 0 -1.29899,0.0238 h -24.5774 l 0.004,-67.78944 c 0,-24.27324 12.75733,-46.56451 33.67822,-58.70054 20.91863,-12.13515 46.52475,-12.13515 67.44383,0 20.92089,12.13603 33.75111,34.42825 33.74972,58.70054 l -0.0476,519.82758 c 0,20.0226 16.16187,36.2603 36.08948,36.2603 19.9276,0 36.08548,-16.2377 36.08548,-36.2603 l -0.0238,-312.3915 c 0.18289,-24.07778 12.87447,-46.14751 33.65042,-58.20001 20.91908,-12.13496 46.50488,-12.13496 67.42396,0 20.92089,12.13641 33.77496,34.42825 33.77357,58.70054 l 0.0238,207.93657 c 0.0242,50.0338 26.65977,96.4145 69.78752,121.4331 43.1265,25.0178 96.3733,25.0178 139.4997,0 43.1283,-25.0186 69.7638,-71.3978 69.7638,-121.4331 V 571.9061 c 0,-19.99918 -16.1336,-36.21286 -36.0379,-36.21264 -19.9034,1.4e-4 -36.0418,16.21359 -36.0418,36.21264 -9e-4,0.14235 -9e-4,0.28258 0,0.42503 v 191.69731 c 0,24.2734 -12.7538,46.5603 -33.6743,58.6966 -20.9191,12.1348 -46.5287,12.1348 -67.4478,0 -20.9204,-12.1363 -33.7466,-34.4245 -33.7457,-58.6966 l -0.024,-207.93657 c -0.024,-50.0338 -26.6598,-96.41442 -69.78758,-121.43306 -21.56343,-12.50894 -45.66582,-18.76178 -69.76372,-18.76178 -23.23767,0 -46.43669,5.871 -67.40014,17.5025 V 348.1513 c -0.004,-50.03368 -26.63547,-96.41435 -69.76376,-121.43308 -21.56296,-12.50891 -45.66535,-18.7578 -69.76372,-18.7578 -23.26511,0 -46.51099,5.89121 -67.49547,17.55018 V 140.19084 C 279.05031,90.157027 252.41884,43.776707 209.29059,18.75778 187.73447,6.2529 163.64431,0.00415 139.55465,0 Z" /></svg>
