<?xml version="1.0" encoding="UTF-8" standalone="no"?>
<svg
   xmlns:dc="http://purl.org/dc/elements/1.1/"
   xmlns:cc="http://creativecommons.org/ns#"
   xmlns:rdf="http://www.w3.org/1999/02/22-rdf-syntax-ns#"
   xmlns:svg="http://www.w3.org/2000/svg"
   xmlns="http://www.w3.org/2000/svg"
   xmlns:sodipodi="http://sodipodi.sourceforge.net/DTD/sodipodi-0.dtd"
   xmlns:inkscape="http://www.inkscape.org/namespaces/inkscape"
   width="10.583333mm"
   height="10.633199mm"
   viewBox="0 0 10.583333 10.633198"
   version="1.1"
   id="svg8"
   inkscape:version="1.0.1 (0767f8302a, 2020-10-17)"
   sodipodi:docname="logo.svg">
  <defs
     id="defs2">
    <style
       type="text/css"
       id="style1198">
    .fil9 {fill:black}
    .fil3 {fill:#1A1A1A}
    .fil14 {fill:#4A4949}
    .fil1 {fill:#4D4D4D}
    .fil6 {fill:#914313}
    .fil13 {fill:#A4ABAD}
    .fil8 {fill:#ACADB5}
    .fil4 {fill:#BFC0C8}
    .fil11 {fill:#CED3D5}
    .fil12 {fill:#E3E7E8}
    .fil10 {fill:#E6E6E6}
    .fil7 {fill:#EBBC96}
    .fil5 {fill:#FACAA3}
    .fil2 {fill:white}
    .fil0 {fill:url(#a)}
  </style>
  </defs>
  <sodipodi:namedview
     id="base"
     pagecolor="#ffffff"
     bordercolor="#666666"
     borderopacity="1.0"
     inkscape:pageopacity="0.0"
     inkscape:pageshadow="2"
     inkscape:zoom="2.5762314"
     inkscape:cx="38.314614"
     inkscape:cy="36.523114"
     inkscape:document-units="mm"
     inkscape:current-layer="g2750"
     inkscape:document-rotation="0"
     showgrid="false"
     showguides="false"
     inkscape:window-width="1366"
     inkscape:window-height="704"
     inkscape:window-x="0"
     inkscape:window-y="27"
     inkscape:window-maximized="1"
     fit-margin-top="0"
     fit-margin-left="0"
     fit-margin-right="0"
     fit-margin-bottom="0" />
  <metadata
     id="metadata5">
    <rdf:RDF>
      <cc:Work
         rdf:about="">
        <dc:format>image/svg+xml</dc:format>
        <dc:type
           rdf:resource="http://purl.org/dc/dcmitype/StillImage" />
        <dc:title></dc:title>
      </cc:Work>
    </rdf:RDF>
  </metadata>
  <g
     inkscape:groupmode="layer"
     id="layer9"
     inkscape:label="Logo 3"
     style="display:inline"
     transform="translate(-83.760478,-78.277117)">
    <g
       id="g2750"
       transform="matrix(0.57741178,0,0,0.57741178,58.450264,61.399621)">
      <g
         id="g2605"
         transform="matrix(0.931347,0,0,0.93578732,-28.394598,-11.042895)"
         style="fill:#ffffff;fill-opacity:1">
        <path
           id="path1796-6-0-6"
           style="color:#000000;overflow:visible;fill:#ffffff;fill-opacity:1;stroke:none;stroke-width:2.35679;stroke-miterlimit:4;stroke-dasharray:none;stroke-opacity:0.992157;stop-color:#000000"
           d="m 81.504333,52.087509 a 0.78806142,0.78806142 0 0 0 -0.77877,0.788067 0.78806142,0.78806142 0 0 0 0.78807,0.788064 0.78806142,0.78806142 0 0 0 5.3e-4,0 v 5.29e-4 h 2.70681 v -5.29e-4 a 0.78806142,0.78806142 0 0 1 5.3e-4,0 0.78806142,0.78806142 0 0 0 0.78806,-0.788064 0.78806142,0.78806142 0 0 0 -0.78806,-0.788067 0.78806142,0.78806142 0 0 0 -0.0284,5.3e-4 h -2.64119 a 0.78806142,0.78806142 0 0 0 -0.0382,-5.3e-4 0.78806142,0.78806142 0 0 0 -0.009,0 z" />
        <path
           id="path1737-0-7-8"
           style="color:#000000;font-style:normal;font-variant:normal;font-weight:normal;font-stretch:normal;font-size:medium;line-height:normal;font-family:sans-serif;font-variant-ligatures:normal;font-variant-position:normal;font-variant-caps:normal;font-variant-numeric:normal;font-variant-alternates:normal;font-variant-east-asian:normal;font-feature-settings:normal;font-variation-settings:normal;text-indent:0;text-align:start;text-decoration:none;text-decoration-line:none;text-decoration-style:solid;text-decoration-color:#000000;letter-spacing:normal;word-spacing:normal;text-transform:none;writing-mode:lr-tb;direction:ltr;text-orientation:mixed;dominant-baseline:auto;baseline-shift:baseline;text-anchor:start;white-space:normal;shape-padding:0;shape-margin:0;inline-size:0;clip-rule:nonzero;display:inline;overflow:visible;visibility:visible;isolation:auto;mix-blend-mode:normal;color-interpolation:sRGB;color-interpolation-filters:linearRGB;solid-color:#000000;solid-opacity:1;vector-effect:none;fill:#ffffff;fill-opacity:1;fill-rule:nonzero;stroke:none;stroke-width:1.32292;stroke-linecap:butt;stroke-linejoin:miter;stroke-miterlimit:4;stroke-dasharray:none;stroke-dashoffset:0;stroke-opacity:1;color-rendering:auto;image-rendering:auto;shape-rendering:auto;text-rendering:auto;enable-background:accumulate;stop-color:#000000"
           d="m 80.603643,43.035924 c -0.52677,9e-5 -1.05362,0.136102 -1.52497,0.408244 -0.93002,0.536949 -1.50809,1.526173 -1.52394,2.597775 -0.001,0.01497 -0.002,0.02996 -0.002,0.04496 0,0.435237 0.35282,0.788069 0.78806,0.788067 0.43523,2e-6 0.78807,-0.35283 0.78807,-0.788067 0,-0.528257 0.27893,-1.013323 0.73639,-1.27744 0.45743,-0.264094 1.01741,-0.264094 1.47484,0 0.45746,0.264117 0.73796,0.749205 0.73794,1.27744 l -0.001,15.838826 c 0,0.43575 0.35334,0.789098 0.7891,0.789098 0.43575,0 0.7891,-0.353348 0.7891,-0.789098 l 5.3e-4,-11.313004 c 0,-0.528256 0.27892,-1.013325 0.73639,-1.27744 0.45742,-0.264096 1.01741,-0.264096 1.47484,0 0.45747,0.264115 0.73797,0.749205 0.73794,1.27744 l -0.001,11.313004 c 0,0.43575 0.35335,0.789098 0.7891,0.789098 0.43575,0 0.7891,-0.353348 0.7891,-0.789098 l -5.3e-4,-6.798551 c 0.004,-0.524002 0.28157,-1.004292 0.73587,-1.266589 0.45743,-0.264092 1.0169,-0.264092 1.47433,0 0.45747,0.264123 0.73849,0.749207 0.73846,1.277442 l 5.3e-4,4.525304 c 5.3e-4,1.088879 0.58294,2.098254 1.526,2.642732 0.94303,0.54446 2.10743,0.54446 3.05046,0 0.94307,-0.544478 1.52549,-1.553821 1.52549,-2.642732 v -4.181139 c 0,-0.43524 -0.35283,-0.788072 -0.78807,-0.788067 -0.43522,3e-6 -0.78806,0.35283 -0.78806,0.788067 -2e-5,0.0031 -2e-5,0.0062 0,0.0093 v 4.171839 c 0,0.528259 -0.27893,1.013323 -0.73639,1.277443 -0.45743,0.264088 -1.01742,0.264088 -1.47485,0 -0.45746,-0.26412 -0.73796,-0.749213 -0.73794,-1.277443 l -5.2e-4,-4.525303 c -5.3e-4,-1.08888 -0.58295,-2.098257 -1.52601,-2.642735 -0.47152,-0.27223 -0.99855,-0.408242 -1.52549,-0.408242 -0.50813,0 -1.01541,0.12772 -1.47381,0.380855 v -1.855198 c -10e-5,-1.088877 -0.58242,-2.098252 -1.52549,-2.642732 -0.47151,-0.27223 -0.99854,-0.408244 -1.52549,-0.408244 -0.50873,0 -1.01701,0.128156 -1.47587,0.381889 V 46.08689 c -1e-4,-1.08888 -0.58242,-2.098249 -1.52549,-2.642733 -0.47136,-0.272142 -0.99821,-0.408154 -1.52497,-0.408244 z"
           sodipodi:nodetypes="sscsssssccsccssccsccssccsssssscsssccssccssccsss" />
      </g>
    </g>
  </g>
</svg>
