<?xml version="1.0" encoding="UTF-8" standalone="no"?>
<svg
   xmlns:dc="http://purl.org/dc/elements/1.1/"
   xmlns:cc="http://creativecommons.org/ns#"
   xmlns:rdf="http://www.w3.org/1999/02/22-rdf-syntax-ns#"
   xmlns:svg="http://www.w3.org/2000/svg"
   xmlns="http://www.w3.org/2000/svg"
   xmlns:sodipodi="http://sodipodi.sourceforge.net/DTD/sodipodi-0.dtd"
   xmlns:inkscape="http://www.inkscape.org/namespaces/inkscape"
   width="10.583333mm"
   height="10.583333mm"
   viewBox="0 0 10.583333 10.583333"
   version="1.1"
   id="svg8"
   inkscape:version="1.0.1 (0767f8302a, 2020-10-17)"
   sodipodi:docname="user-default.svg">
  <defs
     id="defs2" />
  <sodipodi:namedview
     id="base"
     pagecolor="#ffffff"
     bordercolor="#666666"
     borderopacity="1.0"
     inkscape:pageopacity="0.0"
     inkscape:pageshadow="2"
     inkscape:zoom="3.9903537"
     inkscape:cx="37.933125"
     inkscape:cy="34.224512"
     inkscape:document-units="px"
     inkscape:current-layer="layer1"
     inkscape:document-rotation="0"
     showgrid="false"
     inkscape:pagecheckerboard="false"
     fit-margin-top="0"
     fit-margin-left="0"
     fit-margin-right="0"
     fit-margin-bottom="0"
     inkscape:window-width="1366"
     inkscape:window-height="704"
     inkscape:window-x="0"
     inkscape:window-y="27"
     inkscape:window-maximized="1" />
  <metadata
     id="metadata5">
    <rdf:RDF>
      <cc:Work
         rdf:about="">
        <dc:format>image/svg+xml</dc:format>
        <dc:type
           rdf:resource="http://purl.org/dc/dcmitype/StillImage" />
        <dc:title />
      </cc:Work>
    </rdf:RDF>
  </metadata>
  <g
     inkscape:label="Layer 1"
     inkscape:groupmode="layer"
     id="layer1"
     transform="translate(-60.997221,-70.824865)">
    <g
       id="g862"
       transform="matrix(0.82093404,0,0,0.82092326,10.922526,12.683086)">
      <circle
         style="color:#000000;overflow:visible;fill:#00ffff;stroke:none;stroke-width:0.337347;paint-order:stroke markers fill;stop-color:#000000"
         id="path833"
         cx="67.44313"
         cy="77.270775"
         r="6.4459095" />
      <path
         id="path835"
         style="color:#000000;overflow:visible;fill:#000080;stroke:none;stroke-width:9.82258;paint-order:stroke markers fill;stop-color:#000000"
         d="m 254.78516,274.08984 a 11.52518,11.52518 0 0 0 -11.40625,11.52539 11.52518,11.52518 0 0 0 3.91211,8.65235 22.683336,18.673667 0 0 0 -13.27735,10.31445 24.362493,24.362493 0 0 0 20.88867,11.82813 24.362493,24.362493 0 0 0 20.89063,-11.82813 22.683336,18.673667 0 0 0 -13.2793,-10.31445 11.52518,11.52518 0 0 0 3.91406,-8.65235 11.52518,11.52518 0 0 0 -11.52539,-11.52539 11.52518,11.52518 0 0 0 -0.11718,0 z"
         transform="scale(0.26458333)" />
    </g>
  </g>
</svg>
